<svg width="45" height="65" viewBox="0 0 45 65" fill="none" xmlns="http://www.w3.org/2000/svg">
<g clip-path="url(#clip0_7_2)">
<path d="M34.4523 56.1817C34.4523 55.5027 35.1313 54.8236 35.8103 54.8236C36.6592 54.8236 37.3382 55.5027 37.3382 56.1817V61.6141H41.2427V49.3912C41.2427 42.7706 35.8103 37.3382 29.0199 37.3382H15.439C8.8183 37.3382 3.38594 42.7706 3.38594 49.3912V61.6141H7.29045V56.1817C7.29045 55.5027 7.9695 54.8236 8.64854 54.8236C9.49735 54.8236 10.1764 55.5027 10.1764 56.1817V61.6141H14.0809V53.4655C14.0809 52.6167 14.7599 52.1074 15.439 52.1074C16.2878 52.1074 16.9668 52.6167 16.9668 53.4655V61.6141H20.8714V54.6538C20.8714 53.805 21.5504 53.126 22.2294 53.126C23.0782 53.126 23.7573 53.805 23.7573 54.6538V61.6141H27.6618V53.6353C27.6618 52.9562 28.3408 52.2772 29.0199 52.2772C29.8687 52.2772 30.5477 52.9562 30.5477 53.6353V61.6141H34.4523V56.1817ZM1.85809 64.5C1.17905 64.5 0.5 63.821 0.5 62.9721V49.3912C0.5 41.2427 7.29045 34.4523 15.439 34.4523H17.4761V1.85809C17.4761 1.17905 18.1552 0.5 19.004 0.5H25.6247C26.4735 0.5 27.1525 1.17905 27.1525 2.02785V34.4523H29.0199C37.3382 34.4523 44.1286 41.2427 44.1286 49.3912V62.9721C44.1286 63.821 43.4496 64.5 42.6008 64.5C29.0199 64.5 15.439 64.5 1.85809 64.5ZM20.3621 34.4523H24.2666V3.38594H20.3621V34.4523Z" fill="black"/>
</g>
<defs>
<clipPath id="clip0_7_2">
<rect width="43.6286" height="64" fill="white" transform="translate(0.5 0.5)"/>
</clipPath>
</defs>
</svg>
