<svg width="257" height="377" viewBox="0 0 257 377" fill="none" xmlns="http://www.w3.org/2000/svg">
<path d="M200 328C200 324 204 320 208 320C213 320 217 324 217 328V360H240V288C240 249 208 217 168 217H88C49 217 17 249 17 288V360H40V328C40 324 44 320 48 320C53 320 57 324 57 328V360H80V312C80 307 84 304 88 304C93 304 97 307 97 312V360H120V319C120 314 124 310 128 310C133 310 137 314 137 319V360H160V313C160 309 164 305 168 305C173 305 177 309 177 313V360H200V328ZM8 377C4 377 0 373 0 368V288C0 240 40 200 88 200H100V8C100 4 104 0 109 0H148C153 0 157 4 157 9V200H168C217 200 257 240 257 288V368C257 373 253 377 248 377C168 377 88 377 8 377ZM117 200H140V17H117V200Z" fill="black"/>
</svg>
