<svg width="64" height="64" viewBox="0 0 64 64" fill="none" xmlns="http://www.w3.org/2000/svg">
<g clip-path="url(#clip0_7_4)">
<path d="M26.5846 16C27.3635 16 28.125 15.7654 28.7727 15.3259C29.4204 14.8863 29.9252 14.2616 30.2233 13.5307C30.5214 12.7998 30.5994 11.9956 30.4474 11.2196C30.2954 10.4437 29.9203 9.73098 29.3695 9.17157C28.8187 8.61216 28.117 8.2312 27.353 8.07686C26.5889 7.92252 25.7971 8.00173 25.0775 8.30448C24.3578 8.60723 23.7426 9.11992 23.3099 9.77772C22.8771 10.4355 22.6461 11.2089 22.6461 12C22.6461 13.0609 23.0611 14.0783 23.7997 14.8284C24.5383 15.5786 25.54 16 26.5846 16ZM26.5846 10C26.9741 10 27.3548 10.1173 27.6786 10.3371C28.0025 10.5568 28.2549 10.8692 28.404 11.2346C28.553 11.6001 28.5919 12.0022 28.516 12.3902C28.44 12.7781 28.2525 13.1345 27.9771 13.4142C27.7017 13.6939 27.3507 13.8844 26.9688 13.9616C26.5868 14.0387 26.1909 13.9991 25.831 13.8478C25.4712 13.6964 25.1636 13.44 24.9473 13.1111C24.7309 12.7822 24.6154 12.3956 24.6154 12C24.6154 11.4696 24.8228 10.9609 25.1922 10.5858C25.5615 10.2107 26.0624 10 26.5846 10Z" fill="black"/>
<path d="M46.7397 46.11C45.4337 45.434 44.0607 44.901 42.6437 44.52C41.3347 44.1516 40.0572 43.6768 38.8234 43.1C36.8896 42.1708 35.0906 40.9763 33.4769 39.55V36.24C34.0524 35.7575 34.589 35.2292 35.0818 34.66C37.5625 31.7045 38.7908 27.8722 38.4985 24H40.3692C41.0619 23.9945 41.7308 23.742 42.2587 23.2865C42.7867 22.831 43.1402 22.2015 43.2575 21.5081C43.3748 20.8147 43.2484 20.1015 42.9005 19.4931C42.5525 18.8848 42.0051 18.42 41.3538 18.18V17C41.3538 13.0217 39.7978 9.20645 37.028 6.3934C34.2583 3.58035 30.5016 2 26.5846 2C22.6676 2 18.9109 3.58035 16.1412 6.3934C13.3715 9.20645 11.8154 13.0217 11.8154 17V18.18C11.1642 18.42 10.6167 18.8848 10.2688 19.4931C9.92079 20.1015 9.79442 20.8147 9.91173 21.5081C10.029 22.2015 10.3826 22.831 10.9105 23.2865C11.4385 23.742 12.1073 23.9945 12.8 24H14.6708C14.3784 27.8722 15.6067 31.7045 18.0874 34.66C18.5802 35.2292 19.1168 35.7575 19.6923 36.24V39.55C18.0786 40.9763 16.2796 42.1708 14.3458 43.1C13.112 43.6768 11.8345 44.1516 10.5255 44.52C9.10857 44.901 7.73552 45.434 6.42954 46.11C4.03419 47.4212 1.9243 49.2103 0.226462 51.37C0.0818206 51.5473 0.00183233 51.7698 0 52V63C0 63.2652 0.103736 63.5196 0.288387 63.7071C0.473039 63.8946 0.72348 64 0.984615 64H52.1846C52.4457 64 52.6962 63.8946 52.8808 63.7071C53.0655 63.5196 53.1692 63.2652 53.1692 63V52C53.1674 51.7698 53.0874 51.5473 52.9428 51.37C51.2449 49.2103 49.1351 47.4212 46.7397 46.11ZM42.0825 46.43L43.3231 46.83V62H38.4V45.09C39.5947 45.6245 40.8253 46.0723 42.0825 46.43ZM26.5846 4C29.9794 4 33.2351 5.36964 35.6356 7.80761C38.0361 10.2456 39.3846 13.5522 39.3846 17V18H13.7846V17C13.7846 13.5522 15.1331 10.2456 17.5336 7.80761C19.9341 5.36964 23.1899 4 26.5846 4ZM11.8154 21C11.8154 20.7348 11.9192 20.4804 12.1038 20.2929C12.2884 20.1053 12.5389 20 12.8 20H40.3692C40.6304 20 40.8808 20.1053 41.0655 20.2929C41.2501 20.4804 41.3538 20.7348 41.3538 21C41.3538 21.2652 41.2501 21.5196 41.0655 21.7071C40.8808 21.8946 40.6304 22 40.3692 22H12.8C12.5389 22 12.2884 21.8946 12.1038 21.7071C11.9192 21.5196 11.8154 21.2652 11.8154 21ZM16.6498 24H36.5194C36.6629 25.6812 36.4758 27.3745 35.9686 28.9815C35.4615 30.5884 34.6446 32.0768 33.5655 33.36C32.7179 34.4295 31.6584 35.3062 30.4558 35.9333C29.2532 36.5603 27.9343 36.9238 26.5846 37C25.2315 36.9265 23.9087 36.5644 22.7026 35.9372C21.4964 35.3101 20.4338 34.4319 19.584 33.36C18.5084 32.0753 17.6951 30.5861 17.1914 28.9793C16.6877 27.3724 16.5036 25.6798 16.6498 24ZM11.0868 46.43C12.3439 46.0723 13.5745 45.6245 14.7692 45.09V62H9.84615V46.83L11.0868 46.43ZM1.96923 52.36C3.46305 50.5303 5.2921 49.0123 7.35508 47.89C7.53231 47.79 7.69969 47.71 7.87692 47.63V62H1.96923V52.36ZM16.7385 62V44.09C18.3895 43.1511 19.9318 42.0274 21.3366 40.74C21.4386 40.6465 21.5202 40.5324 21.5762 40.4049C21.6321 40.2775 21.6612 40.1395 21.6615 40V37.61C23.16 38.4896 24.8542 38.9679 26.5846 39C28.3151 38.9679 30.0092 38.4896 31.5077 37.61V40C31.508 40.1395 31.5371 40.2775 31.5931 40.4049C31.649 40.5324 31.7306 40.6465 31.8326 40.74C33.2375 42.0274 34.7798 43.1511 36.4308 44.09V62H16.7385ZM51.2 62H45.2923V47.63C45.4695 47.71 45.6369 47.79 45.8142 47.89C47.8771 49.0123 49.7061 50.5303 51.2 52.36V62Z" fill="black"/>
<path d="M62.6412 30.46C62.032 28.6399 60.7554 27.1285 59.0769 26.24L56.8911 12.33C57.0269 12.194 57.155 12.0504 57.2751 11.9C58.0328 10.9548 58.5517 9.83588 58.7865 8.64056C59.0213 7.44525 58.965 6.20976 58.6223 5.04162C58.2797 3.87347 57.6611 2.80806 56.8206 1.93809C55.98 1.06812 54.9429 0.419956 53.7994 0.0499918C53.6336 -0.0107643 53.4547 -0.0251844 53.2815 0.00823739C53.1083 0.0416592 52.9471 0.121697 52.8148 0.239992C52.6877 0.35229 52.591 0.495848 52.5341 0.656928C52.4772 0.818008 52.462 0.991221 52.4898 1.15999L53.3957 6.86999C53.4045 6.91636 53.3949 6.96436 53.3691 7.00364C53.3433 7.04292 53.3033 7.07034 53.2578 7.07999L49.8117 7.63999C49.7884 7.64428 49.7644 7.64377 49.7414 7.63851C49.7183 7.63324 49.6964 7.62333 49.6771 7.60934C49.6578 7.59536 49.6415 7.57759 49.6291 7.55709C49.6167 7.53659 49.6085 7.51378 49.6049 7.48999L48.7385 1.77999C48.7136 1.60821 48.6452 1.44595 48.5399 1.30919C48.4346 1.17242 48.296 1.06586 48.1378 0.999992C47.9779 0.929734 47.8026 0.903824 47.6296 0.924905C47.4566 0.945987 47.2923 1.01331 47.1532 1.11999C46.1436 1.86282 45.3371 2.85471 44.8098 4.00203C44.2826 5.14934 44.0519 6.41422 44.1395 7.67723C44.2272 8.94024 44.6304 10.1597 45.3111 11.2205C45.9917 12.2813 46.9273 13.1484 48.0295 13.74L50.2548 27.65C50.1268 27.79 49.9889 27.93 49.8708 28.08C49.1029 29.0293 48.5764 30.1556 48.3376 31.36C48.0988 32.5644 48.1549 33.8099 48.5011 34.9871C48.8472 36.1643 49.4728 37.237 50.3228 38.1111C51.1729 38.9852 52.2213 39.6338 53.376 40C53.4772 40.0144 53.58 40.0144 53.6812 40C53.9159 40 54.1429 39.9149 54.3212 39.76C54.4501 39.6488 54.5487 39.5057 54.6073 39.3445C54.6659 39.1834 54.6827 39.0096 54.656 38.84L53.7403 33.13C53.7361 33.1063 53.7366 33.082 53.7418 33.0585C53.747 33.0351 53.7567 33.0129 53.7704 32.9933C53.7842 32.9737 53.8017 32.9572 53.8219 32.9446C53.8421 32.932 53.8646 32.9236 53.888 32.92L57.3342 32.36C57.3751 32.3428 57.4212 32.3428 57.4622 32.36C57.4817 32.3734 57.4982 32.3912 57.5101 32.412C57.522 32.4328 57.5292 32.456 57.5311 32.48L58.4468 38.19C58.4693 38.3704 58.5399 38.5412 58.651 38.684C58.762 38.8267 58.9092 38.936 59.0769 39C59.2368 39.0703 59.4122 39.0962 59.5852 39.0751C59.7582 39.054 59.9225 38.9867 60.0615 38.88C61.3096 37.9311 62.2308 36.6062 62.6941 35.0943C63.1573 33.5824 63.1389 31.9606 62.6412 30.46ZM46.4049 8.91999C46.1464 8.10809 46.075 7.24671 46.1962 6.40232C46.3174 5.55794 46.6279 4.75312 47.104 4.04999L47.7046 7.80999C47.7485 8.09812 47.849 8.37437 47.9999 8.62238C48.1508 8.8704 48.3492 9.08514 48.5834 9.25391C48.8174 9.42267 49.0825 9.54202 49.3628 9.6049C49.6431 9.66779 49.9331 9.67292 50.2154 9.61999L53.6615 9.04999C54.2228 8.95674 54.7246 8.6411 55.0569 8.17237C55.3892 7.70364 55.5248 7.12014 55.4338 6.54999L54.8332 2.77999C55.7271 3.45447 56.394 4.39287 56.7429 5.4669C57.0917 6.54093 57.1055 7.69818 56.7823 8.78045C56.459 9.86272 55.8146 10.8172 54.937 11.5134C54.0594 12.2096 52.9916 12.6135 51.8794 12.67C50.6894 12.7353 49.5108 12.4045 48.5228 11.7276C47.5348 11.0508 46.7912 10.0651 46.4049 8.91999ZM51.5348 14.68H51.8794C53.0235 14.6163 54.1383 14.2879 55.1385 13.72L57.0191 25.48C56.4594 25.3598 55.8874 25.3094 55.3157 25.33C54.1751 25.409 53.0672 25.751 52.0763 26.33L50.2154 14.53C50.6493 14.6234 51.0912 14.6737 51.5348 14.68ZM60.0615 36L59.4609 32.24C59.3682 31.669 59.0566 31.1585 58.5945 30.82C58.3678 30.65 58.1098 30.5278 57.8358 30.4608C57.5619 30.3939 57.2774 30.3834 56.9994 30.43L53.5532 31C52.992 31.0932 52.4901 31.4089 52.1578 31.8776C51.8255 32.3463 51.6899 32.9298 51.7809 33.5L52.3815 37.27C51.7951 36.83 51.3025 36.2739 50.9335 35.6351C50.5645 34.9964 50.3268 34.2884 50.2349 33.5538C50.1428 32.8192 50.1983 32.0732 50.3981 31.361C50.5978 30.6488 50.9376 29.9851 51.3969 29.41C51.8763 28.8122 52.4755 28.3248 53.1545 27.9799C53.8335 27.6351 54.5768 27.4409 55.3354 27.41H55.5914C56.5747 27.4118 57.539 27.6855 58.3807 28.2017C59.2224 28.7178 59.9099 29.4571 60.3694 30.34C60.8288 31.2229 61.043 32.2162 60.9887 33.2134C60.9345 34.2105 60.614 35.1738 60.0615 36Z" fill="black"/>
</g>
<defs>
<clipPath id="clip0_7_4">
<rect width="64" height="64" fill="white"/>
</clipPath>
</defs>
</svg>
