<svg width="65" height="64" viewBox="0 0 65 64" fill="none" xmlns="http://www.w3.org/2000/svg">
<path d="M27 16C27.7911 16 28.5645 15.7654 29.2223 15.3259C29.8801 14.8863 30.3928 14.2616 30.6955 13.5307C30.9983 12.7998 31.0775 11.9956 30.9231 11.2196C30.7688 10.4437 30.3878 9.73097 29.8284 9.17156C29.269 8.61215 28.5563 8.23119 27.7804 8.07685C27.0044 7.92251 26.2002 8.00172 25.4693 8.30447C24.7384 8.60722 24.1136 9.11991 23.6741 9.77771C23.2346 10.4355 23 11.2089 23 12C23 13.0609 23.4214 14.0783 24.1716 14.8284C24.9217 15.5786 25.9391 16 27 16ZM27 9.99999C27.3956 9.99999 27.7822 10.1173 28.1111 10.3371C28.44 10.5568 28.6964 10.8692 28.8478 11.2346C28.9991 11.6001 29.0387 12.0022 28.9616 12.3902C28.8844 12.7781 28.6939 13.1345 28.4142 13.4142C28.1345 13.6939 27.7781 13.8844 27.3902 13.9616C27.0022 14.0387 26.6001 13.9991 26.2346 13.8478C25.8692 13.6964 25.5568 13.44 25.3371 13.1111C25.1173 12.7822 25 12.3956 25 12C25 11.4696 25.2107 10.9609 25.5858 10.5858C25.9609 10.2107 26.4696 9.99999 27 9.99999Z" fill="black"/>
<path d="M47.47 46.11C46.1436 45.434 44.7491 44.901 43.31 44.52C41.9806 44.1516 40.6831 43.6768 39.43 43.1C37.466 42.1708 35.6389 40.9763 34 39.55V36.24C34.5845 35.7575 35.1295 35.2292 35.63 34.66C38.1494 31.7045 39.3969 27.8722 39.1 24H41C41.7035 23.9945 42.3828 23.742 42.919 23.2865C43.4552 22.831 43.8143 22.2015 43.9334 21.5081C44.0525 20.8147 43.9242 20.1015 43.5708 19.4931C43.2174 18.8848 42.6614 18.42 42 18.18V17C42 13.0217 40.4196 9.20644 37.6066 6.39339C34.7936 3.58034 30.9782 1.99999 27 1.99999C23.0218 1.99999 19.2064 3.58034 16.3934 6.39339C13.5804 9.20644 12 13.0217 12 17V18.18C11.3386 18.42 10.7826 18.8848 10.4292 19.4931C10.0758 20.1015 9.94746 20.8147 10.0666 21.5081C10.1857 22.2015 10.5448 22.831 11.081 23.2865C11.6172 23.742 12.2965 23.9945 13 24H14.9C14.6031 27.8722 15.8506 31.7045 18.37 34.66C18.8705 35.2292 19.4155 35.7575 20 36.24V39.55C18.3611 40.9763 16.534 42.1708 14.57 43.1C13.3169 43.6768 12.0194 44.1516 10.69 44.52C9.25089 44.901 7.85639 45.434 6.53 46.11C4.09722 47.4212 1.95437 49.2103 0.23 51.37C0.0830991 51.5473 0.00186096 51.7698 0 52V63C0 63.2652 0.105357 63.5196 0.292893 63.7071C0.48043 63.8946 0.734784 64 1 64H53C53.2652 64 53.5196 63.8946 53.7071 63.7071C53.8946 63.5196 54 63.2652 54 63V52C53.9981 51.7698 53.9169 51.5473 53.77 51.37C52.0456 49.2103 49.9028 47.4212 47.47 46.11ZM42.74 46.43L44 46.83V62H39V45.09C40.2134 45.6245 41.4632 46.0723 42.74 46.43ZM27 3.99999C30.4478 3.99999 33.7544 5.36963 36.1924 7.8076C38.6304 10.2456 40 13.5522 40 17V18H14V17C14 13.5522 15.3696 10.2456 17.8076 7.8076C20.2456 5.36963 23.5522 3.99999 27 3.99999ZM12 21C12 20.7348 12.1054 20.4804 12.2929 20.2929C12.4804 20.1053 12.7348 20 13 20H41C41.2652 20 41.5196 20.1053 41.7071 20.2929C41.8946 20.4804 42 20.7348 42 21C42 21.2652 41.8946 21.5196 41.7071 21.7071C41.5196 21.8946 41.2652 22 41 22H13C12.7348 22 12.4804 21.8946 12.2929 21.7071C12.1054 21.5196 12 21.2652 12 21ZM16.91 24H37.09C37.2358 25.6812 37.0457 27.3745 36.5306 28.9815C36.0156 30.5884 35.1859 32.0768 34.09 33.36C33.2291 34.4295 32.1531 35.3062 30.9317 35.9333C29.7103 36.5603 28.3708 36.9238 27 37C25.6257 36.9265 24.2823 36.5644 23.0573 35.9372C21.8323 35.3101 20.7531 34.4319 19.89 33.36C18.7976 32.0753 17.9716 30.5861 17.46 28.9793C16.9484 27.3724 16.7615 25.6798 16.91 24ZM11.26 46.43C12.5368 46.0723 13.7866 45.6245 15 45.09V62H10V46.83L11.26 46.43ZM2 52.36C3.51716 50.5303 5.37479 49.0123 7.47 47.89C7.65 47.79 7.82 47.71 8 47.63V62H2V52.36ZM17 62V44.09C18.6768 43.1511 20.2432 42.0274 21.67 40.74C21.7736 40.6465 21.8565 40.5324 21.9133 40.4049C21.9701 40.2775 21.9997 40.1395 22 40V37.61C23.5219 38.4896 25.2425 38.9679 27 39C28.7575 38.9679 30.4781 38.4896 32 37.61V40C32.0003 40.1395 32.0299 40.2775 32.0867 40.4049C32.1435 40.5324 32.2264 40.6465 32.33 40.74C33.7568 42.0274 35.3232 43.1511 37 44.09V62H17ZM52 62H46V47.63C46.18 47.71 46.35 47.79 46.53 47.89C48.6252 49.0123 50.4828 50.5303 52 52.36V62Z" fill="black"/>
<path d="M63.62 30.46C63.0013 28.6399 61.7047 27.1285 60 26.24L57.78 12.33C57.9179 12.194 58.0481 12.0504 58.17 11.9C58.9396 10.9548 59.4666 9.83588 59.705 8.64056C59.9435 7.44525 59.8863 6.20976 59.5383 5.04162C59.1903 3.87347 58.5621 2.80806 57.7084 1.93809C56.8547 1.06812 55.8014 0.419956 54.64 0.0499918C54.4716 -0.0107643 54.2899 -0.0251844 54.114 0.00823739C53.9381 0.0416592 53.7744 0.121697 53.64 0.239992C53.5109 0.35229 53.4127 0.495848 53.3549 0.656928C53.2972 0.818008 53.2817 0.991221 53.31 1.15999L54.23 6.86999C54.2389 6.91636 54.2292 6.96436 54.203 7.00364C54.1768 7.04292 54.1362 7.07034 54.09 7.07999L50.59 7.63999C50.5663 7.64428 50.542 7.64377 50.5186 7.63851C50.4951 7.63324 50.4729 7.62333 50.4533 7.60934C50.4337 7.59536 50.4172 7.57759 50.4046 7.55709C50.392 7.53659 50.3836 7.51378 50.38 7.48999L49.5 1.77999C49.4748 1.60821 49.4053 1.44595 49.2983 1.30919C49.1914 1.17242 49.0506 1.06586 48.89 0.999992C48.7276 0.929734 48.5495 0.903824 48.3738 0.924905C48.1981 0.945987 48.0312 1.01331 47.89 1.11999C46.8646 1.86282 46.0455 2.85471 45.51 4.00203C44.9745 5.14934 44.7402 6.41422 44.8292 7.67723C44.9183 8.94024 45.3278 10.1597 46.0191 11.2205C46.7103 12.2813 47.6605 13.1484 48.78 13.74L51.04 27.65C50.91 27.79 50.77 27.93 50.65 28.08C49.8701 29.0293 49.3354 30.1556 49.0929 31.36C48.8503 32.5644 48.9073 33.8099 49.2589 34.9871C49.6104 36.1643 50.2458 37.237 51.1091 38.1111C51.9725 38.9852 53.0373 39.6338 54.21 40C54.3128 40.0144 54.4172 40.0144 54.52 40C54.7583 40 54.9889 39.9149 55.17 39.76C55.3009 39.6488 55.401 39.5057 55.4605 39.3445C55.5201 39.1834 55.5371 39.0096 55.51 38.84L54.58 33.13C54.5757 33.1063 54.5762 33.082 54.5815 33.0585C54.5868 33.0351 54.5967 33.0129 54.6106 32.9933C54.6246 32.9737 54.6424 32.9572 54.6629 32.9446C54.6834 32.932 54.7062 32.9236 54.73 32.92L58.23 32.36C58.2716 32.3428 58.3184 32.3428 58.36 32.36C58.3799 32.3734 58.3966 32.3912 58.4087 32.412C58.4208 32.4328 58.4281 32.456 58.43 32.48L59.36 38.19C59.3829 38.3704 59.4546 38.5412 59.5674 38.684C59.6802 38.8267 59.8297 38.936 60 39C60.1624 39.0703 60.3405 39.0962 60.5162 39.0751C60.6919 39.054 60.8588 38.9867 61 38.88C62.2676 37.9311 63.2032 36.6062 63.6737 35.0943C64.1441 33.5824 64.1254 31.9606 63.62 30.46ZM47.13 8.91999C46.8674 8.10809 46.7949 7.24671 46.918 6.40232C47.0411 5.55794 47.3565 4.75312 47.84 4.04999L48.45 7.80999C48.4946 8.09812 48.5966 8.37437 48.7499 8.62238C48.9032 8.8704 49.1047 9.08514 49.3425 9.25391C49.5802 9.42267 49.8494 9.54202 50.1341 9.6049C50.4188 9.66779 50.7133 9.67292 51 9.61999L54.5 9.04999C55.07 8.95674 55.5797 8.6411 55.9172 8.17237C56.2547 7.70364 56.3924 7.12014 56.3 6.54999L55.69 2.77999C56.5978 3.45447 57.2752 4.39287 57.6295 5.4669C57.9838 6.54093 57.9978 7.69818 57.6695 8.78045C57.3412 9.86272 56.6867 10.8172 55.7954 11.5134C54.9041 12.2096 53.8196 12.6135 52.69 12.67C51.4814 12.7353 50.2844 12.4045 49.281 11.7276C48.2775 11.0508 47.5223 10.0651 47.13 8.91999ZM52.34 14.68H52.69C53.852 14.6163 54.9842 14.2879 56 13.72L57.91 25.48C57.3416 25.3598 56.7606 25.3094 56.18 25.33C55.0216 25.409 53.8964 25.751 52.89 26.33L51 14.53C51.4407 14.6234 51.8895 14.6737 52.34 14.68ZM61 36L60.39 32.24C60.2958 31.669 59.9794 31.1585 59.51 30.82C59.2798 30.65 59.0178 30.5278 58.7395 30.4608C58.4613 30.3939 58.1724 30.3834 57.89 30.43L54.39 31C53.82 31.0932 53.3103 31.4089 52.9728 31.8776C52.6353 32.3463 52.4976 32.9298 52.59 33.5L53.2 37.27C52.6044 36.83 52.1041 36.2739 51.7293 35.6351C51.3546 34.9964 51.1132 34.2884 51.0198 33.5538C50.9263 32.8192 50.9827 32.0732 51.1856 31.361C51.3884 30.6488 51.7335 29.9851 52.2 29.41C52.6869 28.8122 53.2954 28.3248 53.985 27.9799C54.6746 27.6351 55.4296 27.4409 56.2 27.41H56.46C57.4587 27.4118 58.438 27.6855 59.2929 28.2017C60.1478 28.7178 60.846 29.4571 61.3127 30.34C61.7793 31.2229 61.9968 32.2162 61.9417 33.2134C61.8866 34.2105 61.5611 35.1738 61 36Z" fill="black"/>
</svg>
