<svg width="32" height="40" viewBox="0 0 32 40" fill="none" xmlns="http://www.w3.org/2000/svg">
<path d="M29.87 26C29.84 25.89 29.81 25.78 29.77 25.68C29.22 24.08 27.71 23 26 23C24.29 23 22.78 24.08 22.25 25.64C22.2 25.76 22.16 25.88 22.13 26C22.04 26.32 22 26.65 22 27C22 29.21 23.79 31 26 31C28.21 31 30 29.21 30 27C30 26.65 29.96 26.31 29.87 26ZM26 29C24.9 29 24 28.1 24 27C24 26.77 24.04 26.55 24.13 26.32C24.17 26.21 24.22 26.1 24.28 26C24.62 25.39 25.27 25 26 25C26.72 25 27.37 25.38 27.72 26C27.79 26.11 27.85 26.23 27.89 26.36C27.96 26.55 28 26.77 28 27C28 28.1 27.1 29 26 29Z" fill="black"/>
<path d="M7 31C4.794 31 3 29.206 3 27C3 26.52 3.083 26.062 3.247 25.639C3.781 24.076 5.295 23 7 23C8.705 23 10.219 24.076 10.767 25.676C10.917 26.062 11 26.52 11 27C11 29.206 9.206 31 7 31ZM7 25C6.15 25 5.396 25.532 5.126 26.324C5.038 26.553 5 26.768 5 27C5 28.103 5.897 29 7 29C8.103 29 9 28.103 9 27C9 26.768 8.962 26.553 8.888 26.361C8.604 25.532 7.85 25 7 25Z" fill="black"/>
<path d="M22 1H2C1.447 1 1 1.448 1 2V26C1 26.552 1.447 27 2 27H4.18C4.608 27 4.988 26.728 5.126 26.324C5.396 25.532 6.15 25 7 25C7.85 25 8.604 25.532 8.874 26.324C9.013 26.728 9.393 27 9.82 27H22C22.553 27 23 26.552 23 26V2C23 1.448 22.553 1 22 1ZM6 8H15.586L14.293 6.707C13.902 6.316 13.902 5.684 14.293 5.293C14.684 4.902 15.316 4.902 15.707 5.293L18.706 8.292C18.799 8.384 18.872 8.495 18.923 8.618C19.024 8.862 19.024 9.138 18.923 9.382C18.872 9.505 18.799 9.615 18.706 9.708L15.707 12.707C15.512 12.902 15.256 13 15 13C14.744 13 14.488 12.902 14.293 12.707C13.902 12.316 13.902 11.684 14.293 11.293L15.586 10H6C5.447 10 5 9.552 5 9C5 8.448 5.447 8 6 8ZM18 17H8.414L9.707 18.293C10.098 18.684 10.098 19.316 9.707 19.707C9.512 19.902 9.256 20 9 20C8.744 20 8.488 19.902 8.293 19.707L5.294 16.708C5.201 16.616 5.128 16.505 5.077 16.382C4.976 16.138 4.976 15.862 5.077 15.618C5.128 15.495 5.201 15.385 5.294 15.292L8.293 12.293C8.684 11.902 9.316 11.902 9.707 12.293C10.098 12.684 10.098 13.316 9.707 13.707L8.414 15H18C18.553 15 19 15.448 19 16C19 16.552 18.553 17 18 17Z" fill="black"/>
<path d="M22 16C21.448 16 21 15.552 21 15C21 14.448 21.447 14 22 14L30 13.999C30.552 13.999 31 14.447 31 14.999C31 15.551 30.553 15.999 30 15.999L22 16Z" fill="black"/>
<path d="M30.868 14.503L26.868 7.503C26.69 7.191 26.358 6.999 26 6.999L22 7C21.447 7 21 7.448 21 8V26C21 26.552 21.447 27 22 27H23.18C23.608 27 23.988 26.728 24.126 26.324C24.177 26.175 24.26 26.046 24.342 25.917C24.395 25.834 24.454 25.756 24.518 25.682C24.583 25.608 24.655 25.54 24.73 25.477C24.792 25.425 24.854 25.372 24.922 25.327C25.025 25.261 25.137 25.209 25.252 25.163C25.31 25.139 25.365 25.108 25.426 25.09C25.61 25.035 25.801 25 26 25C26.198 25 26.388 25.035 26.571 25.089C26.634 25.108 26.691 25.139 26.751 25.164C26.862 25.209 26.971 25.26 27.072 25.324C27.144 25.37 27.209 25.425 27.275 25.481C27.347 25.541 27.414 25.605 27.476 25.675C27.543 25.751 27.605 25.832 27.66 25.919C27.742 26.047 27.825 26.176 27.875 26.324C28.013 26.728 28.393 27 28.82 27H30C30.553 27 31 26.552 31 26V14.999C31 14.825 30.954 14.654 30.868 14.503ZM25.42 8.999L28.849 15H23V9L25.42 8.999Z" fill="black"/>
</svg>
