<svg width="64" height="64" viewBox="0 0 64 64" fill="none" xmlns="http://www.w3.org/2000/svg">
<path d="M59.74 41.6C59.68 41.424 59.62 41.248 59.54 41.088C58.44 38.528 55.42 36.8 52 36.8C48.58 36.8 45.56 38.528 44.5 41.024C44.4 41.216 44.32 41.408 44.26 41.6C44.08 42.112 44 42.64 44 43.2C44 46.736 47.58 49.6 52 49.6C56.42 49.6 60 46.736 60 43.2C60 42.64 59.92 42.096 59.74 41.6ZM52 46.4C49.8 46.4 48 44.96 48 43.2C48 42.832 48.08 42.48 48.26 42.112C48.34 41.936 48.44 41.76 48.56 41.6C49.24 40.624 50.54 40 52 40C53.44 40 54.74 40.608 55.44 41.6C55.58 41.776 55.7 41.968 55.78 42.176C55.92 42.48 56 42.832 56 43.2C56 44.96 54.2 46.4 52 46.4Z" fill="black"/>
<path d="M14 49.6C9.588 49.6 6 46.7296 6 43.2C6 42.432 6.166 41.6992 6.494 41.0224C7.562 38.5216 10.59 36.8 14 36.8C17.41 36.8 20.438 38.5216 21.534 41.0816C21.834 41.6992 22 42.432 22 43.2C22 46.7296 18.412 49.6 14 49.6ZM14 40C12.3 40 10.792 40.8512 10.252 42.1184C10.076 42.4848 10 42.8288 10 43.2C10 44.9648 11.794 46.4 14 46.4C16.206 46.4 18 44.9648 18 43.2C18 42.8288 17.924 42.4848 17.776 42.1776C17.208 40.8512 15.7 40 14 40Z" fill="black"/>
<path d="M44 1.60001H4C2.894 1.60001 2 2.31681 2 3.20001V41.6C2 42.4832 2.894 43.2 4 43.2H8.36C9.216 43.2 9.976 42.7648 10.252 42.1184C10.792 40.8512 12.3 40 14 40C15.7 40 17.208 40.8512 17.748 42.1184C18.026 42.7648 18.786 43.2 19.64 43.2H44C45.106 43.2 46 42.4832 46 41.6V3.20001C46 2.31681 45.106 1.60001 44 1.60001ZM12 12.8H31.172L28.586 10.7312C27.804 10.1056 27.804 9.09441 28.586 8.46881C29.368 7.84321 30.632 7.84321 31.414 8.46881L37.412 13.2672C37.598 13.4144 37.744 13.592 37.846 13.7888C38.048 14.1792 38.048 14.6208 37.846 15.0112C37.744 15.208 37.598 15.384 37.412 15.5328L31.414 20.3312C31.024 20.6432 30.512 20.8 30 20.8C29.488 20.8 28.976 20.6432 28.586 20.3312C27.804 19.7056 27.804 18.6944 28.586 18.0688L31.172 16H12C10.894 16 10 15.2832 10 14.4C10 13.5168 10.894 12.8 12 12.8ZM36 27.2H16.828L19.414 29.2688C20.196 29.8944 20.196 30.9056 19.414 31.5312C19.024 31.8432 18.512 32 18 32C17.488 32 16.976 31.8432 16.586 31.5312L10.588 26.7328C10.402 26.5856 10.256 26.408 10.154 26.2112C9.952 25.8208 9.952 25.3792 10.154 24.9888C10.256 24.792 10.402 24.616 10.588 24.4672L16.586 19.6688C17.368 19.0432 18.632 19.0432 19.414 19.6688C20.196 20.2944 20.196 21.3056 19.414 21.9312L16.828 24H36C37.106 24 38 24.7168 38 25.6C38 26.4832 37.106 27.2 36 27.2Z" fill="black"/>
<path d="M44 25.6C42.896 25.6 42 24.8832 42 24C42 23.1168 42.894 22.4 44 22.4L60 22.3984C61.104 22.3984 62 23.1152 62 23.9984C62 24.8816 61.106 25.5984 60 25.5984L44 25.6Z" fill="black"/>
<path d="M61.736 23.2048L53.736 12.0048C53.38 11.5056 52.716 11.1984 52 11.1984L44 11.2C42.894 11.2 42 11.9168 42 12.8V41.6C42 42.4832 42.894 43.2 44 43.2H46.36C47.216 43.2 47.976 42.7648 48.252 42.1184C48.354 41.88 48.52 41.6736 48.684 41.4672C48.79 41.3344 48.908 41.2096 49.036 41.0912C49.166 40.9728 49.31 40.864 49.46 40.7632C49.584 40.68 49.708 40.5952 49.844 40.5232C50.05 40.4176 50.274 40.3344 50.504 40.2608C50.62 40.2224 50.73 40.1728 50.852 40.144C51.22 40.056 51.602 40 52 40C52.396 40 52.776 40.056 53.142 40.1424C53.268 40.1728 53.382 40.2224 53.502 40.2624C53.724 40.3344 53.942 40.416 54.144 40.5184C54.288 40.592 54.418 40.68 54.55 40.7696C54.694 40.8656 54.828 40.968 54.952 41.08C55.086 41.2016 55.21 41.3312 55.32 41.4704C55.484 41.6752 55.65 41.8816 55.75 42.1184C56.026 42.7648 56.786 43.2 57.64 43.2H60C61.106 43.2 62 42.4832 62 41.6V23.9984C62 23.72 61.908 23.4464 61.736 23.2048ZM50.84 14.3984L57.698 24H46V14.4L50.84 14.3984Z" fill="black"/>
</svg>
