<svg width="64" height="64" viewBox="0 0 64 64" fill="none" xmlns="http://www.w3.org/2000/svg">
<g clip-path="url(#clip0_7_14)">
<path d="M62.2379 34.1894C63.3579 33.0694 64 31.519 64 29.9355C64 28.352 63.3579 26.8015 62.2379 25.6815L53.6774 17.121L43.9597 26.8387L48.0888 30.9677L30.9677 48.0888L26.8387 43.9597L17.121 53.6774L25.6815 62.2379C26.8015 63.3579 28.352 64 29.9355 64C31.519 64 33.0694 63.3579 34.1894 62.2379L36.5708 59.8565C39.5902 62.5259 43.4199 64 47.4839 64C56.5905 64 64 56.5905 64 47.4839C64 43.4188 62.5259 39.5881 59.8565 36.5708L62.2379 34.1894ZM46.879 26.8387L53.6774 20.0403L55.3146 21.6774L48.5161 28.4759L46.879 26.8387ZM20.0403 53.6774L26.8387 46.879L28.4759 48.5161L21.6774 55.3146L20.0403 53.6774ZM35.0751 58.432L32.7298 60.7783C31.9938 61.5143 30.976 61.9355 29.9355 61.9355C28.895 61.9355 27.8772 61.5143 27.1412 60.7783L23.137 56.7742L29.9355 49.9757L30.9677 51.008L51.008 30.9677L49.9757 29.9355L56.7742 23.137L60.7783 27.1412C61.5143 27.8772 61.9355 28.895 61.9355 29.9355C61.9355 30.976 61.5143 31.9938 60.7783 32.7298L58.433 35.0751L35.0751 58.432ZM61.9355 47.4839C61.9355 55.4529 55.4529 61.9355 47.4839 61.9355C43.9701 61.9355 40.6472 60.6896 38.0201 58.4072L58.4072 38.0201C60.6896 40.6462 61.9355 43.969 61.9355 47.4839Z" fill="black"/>
<path d="M26.8387 43.3548V39.5107C28.159 39.1288 29.4317 38.6013 30.6374 37.9355L33.3564 40.6555L40.6555 33.3564L37.9355 30.6374C38.6023 29.4317 39.1288 28.16 39.5107 26.8387H43.3548V16.5161H39.5107C39.1288 15.1959 38.6013 13.9231 37.9355 12.7174L40.6555 9.99845L33.3564 2.69935L30.6374 5.41935C29.4317 4.75252 28.16 4.22606 26.8387 3.84413V0H16.5161V3.84413C15.1959 4.22606 13.9231 4.75355 12.7174 5.41935L9.99845 2.69935L2.69935 9.99845L5.41935 12.7174C4.75252 13.9231 4.22606 15.1948 3.84413 16.5161H0V26.8387H3.84413C4.22606 28.159 4.75355 29.4317 5.41935 30.6374L2.69935 33.3564L9.99845 40.6555L12.7174 37.9355C13.9231 38.6023 15.1948 39.1288 16.5161 39.5107V43.3548H26.8387ZM13.088 35.7636L12.3943 35.3404L9.99948 37.7363L5.61961 33.3564L8.01548 30.9615L7.59226 30.2679C6.69935 28.8062 6.04284 27.2237 5.64129 25.5649L5.45032 24.7742H2.06452V18.5806H5.45032L5.64129 17.7899C6.04284 16.1321 6.69832 14.5486 7.59226 13.087L8.01548 12.3933L5.61961 9.99845L9.99948 5.61858L12.3943 8.01445L13.088 7.59123C14.5497 6.69832 16.1321 6.04181 17.791 5.64026L18.5806 5.45032V2.06452H24.7742V5.45032L25.5649 5.64129C27.2227 6.04284 28.8062 6.69832 30.2679 7.59226L30.9615 8.01548L33.3564 5.61961L37.7363 9.99948L35.3404 12.3943L35.7636 13.088C36.6565 14.5497 37.313 16.1321 37.7146 17.791L37.9045 18.5806H41.2903V24.7742H37.9045L37.7135 25.5649C37.312 27.2227 36.6565 28.8062 35.7626 30.2679L35.3394 30.9615L37.7352 33.3564L33.3554 37.7363L30.9605 35.3404L30.2668 35.7636C28.8052 36.6565 27.2227 37.313 25.5639 37.7146L24.7742 37.9045V41.2903H18.5806V37.9045L17.7899 37.7135C16.1321 37.312 14.5497 36.6565 13.088 35.7636Z" fill="black"/>
<path d="M33.0323 21.6774C33.0323 15.4168 27.9381 10.3226 21.6774 10.3226C15.4168 10.3226 10.3226 15.4168 10.3226 21.6774C10.3226 27.9381 15.4168 33.0322 21.6774 33.0322C27.9381 33.0322 33.0323 27.9381 33.0323 21.6774ZM12.3871 21.6774C12.3871 16.5543 16.5543 12.3871 21.6774 12.3871C26.8005 12.3871 30.9677 16.5543 30.9677 21.6774C30.9677 26.8005 26.8005 30.9677 21.6774 30.9677C16.5543 30.9677 12.3871 26.8005 12.3871 21.6774Z" fill="black"/>
<path d="M31.2698 45.1171L32.7296 43.6573L30.6654 41.5931L29.2056 43.0529L31.2698 45.1171Z" fill="black"/>
<path d="M41.5923 30.6659L43.6565 32.7301L45.1163 31.2703L43.0521 29.2061L41.5923 30.6659Z" fill="black"/>
</g>
<defs>
<clipPath id="clip0_7_14">
<rect width="64" height="64" fill="white"/>
</clipPath>
</defs>
</svg>
