<svg width="90" height="86" viewBox="0 0 90 86" fill="none" xmlns="http://www.w3.org/2000/svg">
<path fill-rule="evenodd" clip-rule="evenodd" d="M59.89 11.775C58.9957 10.8799 57.8187 10.3225 56.5595 10.1979C55.3003 10.0733 54.0369 10.3892 52.9845 11.0917C51.9321 11.7943 51.1559 12.8399 50.7881 14.0506C50.4203 15.2613 50.4837 16.5621 50.9675 17.7313C51.4512 18.9005 52.3254 19.8657 53.4411 20.4626C54.5568 21.0595 55.845 21.2511 57.0861 21.0046C58.3271 20.7582 59.4444 20.0891 60.2474 19.1112C61.0505 18.1334 61.4896 16.9073 61.49 15.642C61.4912 14.9238 61.3505 14.2125 61.0759 13.5488C60.8014 12.8852 60.3983 12.2824 59.89 11.775ZM56.023 7.53502C57.8985 7.53524 59.716 8.18579 61.1657 9.37582C62.6155 10.5658 63.6077 12.2217 63.9734 14.0613C64.3391 15.9009 64.0556 17.8104 63.1713 19.4644C62.287 21.1184 60.8565 22.4146 59.1236 23.1322C57.3908 23.8498 55.4627 23.9443 53.6679 23.3997C51.8731 22.8551 50.3227 21.705 49.2809 20.1454C48.239 18.5858 47.7701 16.7132 47.9541 14.8467C48.1381 12.9801 48.9636 11.2351 50.29 9.90902C51.042 9.15509 51.9357 8.55724 52.9195 8.14982C53.9034 7.74241 54.9581 7.53347 56.023 7.53502ZM72.373 38.892C71.114 35.5761 68.8762 32.7215 65.9568 30.7071C63.0374 28.6928 59.5744 27.6141 56.0275 27.6141C52.4806 27.6141 49.0175 28.6928 46.0981 30.7071C43.1787 32.7215 40.941 35.5761 39.682 38.892C39.79 39.005 39.9 39.117 40.01 39.227C44.2584 43.4753 50.0204 45.8619 56.0285 45.8619C62.0365 45.8619 67.7985 43.4753 72.047 39.227C72.157 39.117 72.2656 39.0057 72.373 38.893V38.892ZM37.781 36.634C35.2991 33.2593 33.8016 29.2626 33.4547 25.0879C33.1079 20.9132 33.9254 16.7241 35.8164 12.9862C37.7074 9.24821 40.5977 6.10775 44.1663 3.91381C47.7349 1.71986 51.8419 0.55835 56.031 0.55835C60.22 0.55835 64.327 1.71986 67.8956 3.91381C71.4642 6.10775 74.3546 9.24821 76.2455 12.9862C78.1365 16.7241 78.954 20.9132 78.6072 25.0879C78.2604 29.2626 76.7628 33.2593 74.281 36.634C72.669 33.1512 70.094 30.2024 66.8602 28.1357C63.6264 26.0691 59.8688 24.9709 56.031 24.9709C52.1932 24.9709 48.4355 26.0691 45.2017 28.1357C41.9679 30.2024 39.393 33.1512 37.781 36.634ZM10.167 55.448L0.391968 61.28L14.686 85.446L24.461 79.614L10.167 55.448ZM13.929 56.637C18.563 52.3817 23.005 49.915 27.255 49.237C31.6243 48.537 35.8533 49.737 39.942 52.837C40.341 53.1424 40.7698 53.4067 41.222 53.626C41.6748 53.8429 42.1486 54.0131 42.636 54.134L59.161 58.276L59.21 58.29C59.7566 58.4329 60.2693 58.6833 60.718 59.0267C61.1667 59.3702 61.5423 59.7996 61.823 60.29C62.4026 61.2721 62.5783 62.4409 62.313 63.55L62.3 63.597C62.0142 64.6992 61.3042 65.6436 60.3248 66.2244C59.3454 66.8051 58.1761 66.975 57.072 66.697L48.872 64.607C48.5366 64.5311 48.1848 64.5891 47.8916 64.7688C47.5984 64.9485 47.3869 65.2355 47.3023 65.5688C47.2177 65.9022 47.2665 66.2553 47.4385 66.5531C47.6105 66.8509 47.892 67.0698 48.223 67.163L56.423 69.252C58.2056 69.7005 60.0933 69.4253 61.6737 68.4866C63.2541 67.5479 64.3989 66.0219 64.858 64.242L64.873 64.178C65.1875 62.8816 65.1237 61.5222 64.689 60.261L82.252 47.435C82.266 47.424 82.332 47.38 82.452 47.304C83.4468 46.6562 84.6463 46.4001 85.819 46.585C86.3828 46.6665 86.9249 46.8587 87.4142 47.1504C87.9035 47.4422 88.3302 47.8278 88.67 48.285C88.676 48.293 88.715 48.351 88.787 48.462C89.4713 49.4861 89.7435 50.7308 89.549 51.947C89.3343 53.201 88.672 54.3344 87.685 55.137L62.271 76.283C61.7571 76.7251 61.1528 77.0496 60.5004 77.2337C59.8479 77.4178 59.1632 77.4572 58.494 77.349L32.876 73.679C31.1911 73.4162 29.4675 73.7596 28.012 74.648L25.474 76.156L13.929 56.637Z" fill="black"/>
</svg>
