<svg width="68" height="65" viewBox="0 0 68 65" fill="none" xmlns="http://www.w3.org/2000/svg">
<path fill-rule="evenodd" clip-rule="evenodd" d="M45.2498 9.01501C44.5755 8.34016 43.6881 7.91991 42.7388 7.82597C41.7894 7.73203 40.8369 7.9702 40.0435 8.49984C39.25 9.02956 38.6648 9.81787 38.3875 10.7307C38.1102 11.6435 38.158 12.6242 38.5228 13.5057C38.8874 14.3872 39.5465 15.1149 40.3877 15.5649C41.2289 16.0149 42.2001 16.1594 43.1358 15.9735C44.0714 15.7878 44.9138 15.2833 45.5192 14.546C46.1247 13.8088 46.4558 12.8844 46.4561 11.9305C46.457 11.389 46.3509 10.8527 46.1439 10.3523C45.9369 9.85203 45.633 9.39755 45.2498 9.01501ZM42.3343 5.81832C43.7483 5.81849 45.1186 6.30896 46.2116 7.20617C47.3046 8.10334 48.0527 9.35179 48.3284 10.7387C48.6041 12.1257 48.3904 13.5653 47.7237 14.8123C47.057 16.0593 45.9785 17.0366 44.672 17.5776C43.3655 18.1187 41.9119 18.1899 40.5587 17.7793C39.2055 17.3687 38.0366 16.5016 37.2512 15.3258C36.4656 14.1499 36.1121 12.7381 36.2509 11.3309C36.3896 9.92358 37.012 8.60795 38.012 7.60817C38.5789 7.03976 39.2527 6.58901 39.9945 6.28185C40.7363 5.97468 41.5314 5.81716 42.3343 5.81832ZM54.6612 29.4595C53.712 26.9596 52.0248 24.8074 49.8238 23.2886C47.6227 21.77 45.0118 20.9567 42.3377 20.9567C39.6635 20.9567 37.0526 21.77 34.8515 23.2886C32.6505 24.8074 30.9634 26.9596 30.0142 29.4595C30.0956 29.5447 30.1786 29.6292 30.2615 29.7121C33.4645 32.9151 37.8087 34.7144 42.3384 34.7144C46.8681 34.7144 51.2123 32.9151 54.4154 29.7121C54.4983 29.6292 54.5802 29.5453 54.6612 29.4603V29.4595ZM28.581 27.7571C26.7098 25.2128 25.5807 22.1996 25.3192 19.0521C25.0577 15.9046 25.6741 12.7463 27.0998 9.92818C28.5255 7.10996 30.7046 4.74225 33.3951 3.08816C36.0856 1.43406 39.182 0.55835 42.3403 0.55835C45.4986 0.55835 48.595 1.43406 51.2855 3.08816C53.976 4.74225 56.1552 7.10996 57.5808 9.92818C59.0065 12.7463 59.6228 15.9046 59.3614 19.0521C59.0999 22.1996 57.9708 25.2128 56.0997 27.7571C54.8843 25.1313 52.943 22.9081 50.5049 21.35C48.0668 19.7919 45.2338 18.9639 42.3403 18.9639C39.4469 18.9639 36.6138 19.7919 34.1757 21.35C31.7376 22.9081 29.7963 25.1313 28.581 27.7571ZM7.76173 41.9417L0.391968 46.3387L11.1688 64.5584L18.5385 60.1614L7.76173 41.9417ZM10.598 42.8382C14.0918 39.6299 17.4408 37.7702 20.645 37.259C23.9392 36.7313 27.1276 37.636 30.2102 39.9732C30.511 40.2035 30.8343 40.4027 31.1753 40.5681C31.5166 40.7316 31.8739 40.8599 32.2413 40.9511L44.7002 44.0739L44.7371 44.0844C45.1492 44.1922 45.5357 44.3809 45.874 44.6398C46.2123 44.8988 46.4955 45.2226 46.7071 45.5923C47.1441 46.3327 47.2766 47.2139 47.0766 48.0501L47.0668 48.0856C46.8513 48.9166 46.316 49.6286 45.5776 50.0665C44.8392 50.5043 43.9576 50.6324 43.1252 50.4228L36.9429 48.847C36.69 48.7898 36.4248 48.8335 36.2037 48.969C35.9827 49.1045 35.8232 49.3209 35.7594 49.5722C35.6957 49.8235 35.7324 50.0898 35.8621 50.3143C35.9918 50.5388 36.204 50.7038 36.4536 50.7741L42.6359 52.3491C43.9798 52.6872 45.403 52.4797 46.5946 51.772C47.7861 51.0643 48.6492 49.9138 48.9953 48.5719L49.0066 48.5236C49.2438 47.5462 49.1957 46.5213 48.8679 45.5704L62.1093 35.9004C62.1199 35.8921 62.1696 35.859 62.2601 35.8017C63.0101 35.3133 63.9145 35.1202 64.7986 35.2596C65.2237 35.321 65.6324 35.4659 66.0013 35.6859C66.3702 35.9059 66.6919 36.1966 66.9481 36.5413C66.9526 36.5473 66.982 36.591 67.0363 36.6747C67.5522 37.4468 67.7575 38.3853 67.6108 39.3022C67.4489 40.2476 66.9496 41.1021 66.2055 41.7073L47.0449 57.65C46.6575 57.9833 46.2018 58.228 45.71 58.3668C45.218 58.5056 44.7018 58.5353 44.1973 58.4537L24.8829 55.6868C23.6126 55.4886 22.3131 55.7475 21.2157 56.4173L19.3023 57.5543L10.598 42.8382Z" fill="black"/>
</svg>
