<svg width="65" height="65" viewBox="0 0 65 65" fill="none" xmlns="http://www.w3.org/2000/svg">
<path d="M34.5718 41.4979L36.7999 32.1314C36.8163 32.0746 36.8296 32.0156 36.8413 31.9556L39.6823 20.014C39.7042 19.9401 39.7222 19.865 39.7362 19.7867L41.8064 11.0849C41.833 10.9992 41.8541 10.9091 41.8697 10.818L43.1464 5.45025L48.4593 3.60633C49.1442 3.36833 49.5593 2.41421 49.3865 1.47403C49.213 0.533839 48.5156 -0.0332752 47.8316 0.202575L41.8345 2.28342C41.4085 2.43136 41.0676 2.86769 40.9316 3.44123L39.6471 8.84007L14.9039 14.0695C14.8929 14.0717 14.882 14.0738 14.871 14.077L8.64651 15.3924C8.63244 15.3946 8.61837 15.3978 8.60508 15.401L1.15317 16.9758C0.459733 17.1227 -0.0179332 18.0071 0.0813526 18.9591L1.41037 31.7144C1.41272 31.7379 1.41507 31.7605 1.41741 31.784L2.11554 38.4865C2.19841 39.2777 2.65966 39.893 3.23895 39.982L32.769 44.5553C32.8167 44.5629 32.8652 44.5661 32.9129 44.5661C33.8901 44.5661 34.6844 45.5824 34.6844 46.8313C34.6844 48.0813 33.8893 49.0976 32.9129 49.0976H4.4812C3.77447 49.0976 3.20143 49.8834 3.20143 50.8526C3.20143 51.8217 3.77447 52.6075 4.4812 52.6075H7.72479C6.23316 53.5102 5.18167 55.6553 5.18167 58.15C5.18167 61.4583 7.02901 64.1492 9.30086 64.1492C11.5727 64.1492 13.42 61.4583 13.42 58.15C13.42 55.6553 12.3686 53.5102 10.8769 52.6075H27.7477C26.2561 53.5102 25.2046 55.6553 25.2046 58.15C25.2046 61.4583 27.0519 64.1492 29.3238 64.1492C31.5948 64.1492 33.4429 61.4583 33.4429 58.15C33.4429 55.6553 32.3914 53.5102 30.8998 52.6075H32.9129C35.3012 52.6075 37.2447 50.0164 37.2447 46.8313C37.2447 44.4321 36.1393 42.3673 34.5718 41.4979ZM2.79334 20.1823L7.56375 19.1746L7.61222 23.6633L3.24599 24.522L2.79334 20.1823ZM3.60795 27.9976L7.64974 27.2021L7.67711 29.7439H3.79011L3.60795 27.9976ZM4.50934 36.6469L4.15598 33.2538H7.71463L7.75685 37.1496L4.50934 36.6469ZM13.5701 38.0502L10.3211 37.5474L10.275 33.2549H13.6202L13.5701 38.0502ZM13.6569 29.7439H10.2374L10.2046 26.6993L13.6968 26.0121L13.6569 29.7439ZM13.7335 22.4583L10.1663 23.1605L10.1178 18.6343L13.782 17.8592L13.7335 22.4583ZM32.7276 13.8551L38.7567 12.5804L37.5207 17.7767L31.7981 18.9034L32.7276 13.8551ZM24.4924 15.5961L29.9804 14.4362L29.0579 19.4426L23.8716 20.4632L24.4924 15.5961ZM18.9269 38.8799L16.1266 38.4468L16.1813 33.2549H19.6438L18.9269 38.8799ZM20.091 29.7439H16.218L16.2626 25.5072L20.7437 24.626L20.091 29.7439ZM16.2993 21.9534L16.3478 17.3178L21.8218 16.1611L21.2065 20.9885L16.2993 21.9534ZM25.296 39.8673L21.4747 39.2755L22.2416 33.2549H26.5133L25.296 39.8673ZM22.6896 29.7439L23.4088 24.1007L28.3801 23.1219L27.1606 29.7439H22.6896ZM32.0193 40.9082L27.8634 40.265L29.1549 33.2549H33.8401L32.0193 40.9082ZM29.8014 29.7439L31.1203 22.5827L36.6365 21.4967L34.675 29.7439H29.8014ZM9.30086 60.6414C8.4409 60.6414 7.74199 59.5254 7.74199 58.1532C7.74199 56.781 8.44168 55.665 9.30086 55.665C10.16 55.665 10.8597 56.781 10.8597 58.1532C10.8597 59.5244 10.16 60.6414 9.30086 60.6414ZM29.323 60.6414C28.463 60.6414 27.7641 59.5254 27.7641 58.1532C27.7641 56.781 28.4638 55.665 29.323 55.665C30.1829 55.665 30.8818 56.781 30.8818 58.1532C30.8826 59.5244 30.1829 60.6414 29.323 60.6414ZM64.0683 50.9512C64.0683 51.9203 63.4953 52.7061 62.7885 52.7061H59.3464C58.6396 52.7061 58.0666 51.9203 58.0666 50.9512C58.0666 49.9821 58.6396 49.1962 59.3464 49.1962H62.7885C63.4953 49.1952 64.0683 49.981 64.0683 50.9512ZM43.4724 40.2554C43.4724 39.2862 44.0454 38.5004 44.7521 38.5004H61.5213C62.228 38.5004 62.801 39.2862 62.801 40.2554C62.801 41.2245 62.228 42.0103 61.5213 42.0103H44.7521C44.0446 42.0103 43.4724 41.2245 43.4724 40.2554ZM62.801 29.5595C62.801 30.5287 62.228 31.3145 61.5213 31.3145H59.7294C59.0227 31.3145 58.4497 30.5287 58.4497 29.5595C58.4497 28.5904 59.0227 27.8046 59.7294 27.8046H61.5213C62.228 27.8046 62.801 28.5904 62.801 29.5595ZM49.4193 18.8648C49.4193 17.8957 49.9924 17.1098 50.6991 17.1098H61.5205C62.2272 17.1098 62.8003 17.8957 62.8003 18.8648C62.8003 19.8339 62.2272 20.6197 61.5205 20.6197H50.6991C49.9924 20.6197 49.4193 19.8339 49.4193 18.8648ZM56.6586 50.9512C56.6586 51.9203 56.0856 52.7061 55.3788 52.7061H39.877C39.1702 52.7061 38.5972 51.9203 38.5972 50.9512C38.5972 49.9821 39.1702 49.1962 39.877 49.1962H55.3788C56.0863 49.1952 56.6586 49.981 56.6586 50.9512ZM39.1218 42.0103C38.415 42.0103 37.842 41.2245 37.842 40.2554C37.842 39.2862 38.415 38.5004 39.1218 38.5004H40.5845C41.2912 38.5004 41.8642 39.2862 41.8642 40.2554C41.8642 41.2245 41.2912 42.0103 40.5845 42.0103H39.1218ZM41.7055 27.8046H55.3061C56.0129 27.8046 56.5859 28.5904 56.5859 29.5595C56.5859 30.5287 56.0129 31.3145 55.3061 31.3145H41.7055C40.9988 31.3145 40.4258 30.5287 40.4258 29.5595C40.4258 28.5904 40.998 27.8046 41.7055 27.8046ZM43.1675 20.6197C42.4607 20.6197 41.8877 19.8339 41.8877 18.8648C41.8877 17.8957 42.4607 17.1098 43.1675 17.1098H47.3594C48.0661 17.1098 48.6391 17.8957 48.6391 18.8648C48.6391 19.8339 48.0661 20.6197 47.3594 20.6197H43.1675Z" fill="black"/>
</svg>
