<svg width="82" height="60" viewBox="0 0 82 60" fill="none" xmlns="http://www.w3.org/2000/svg">
<path d="M44.203 38.719L47.053 29.982C47.074 29.929 47.091 29.874 47.106 29.818L50.74 18.679C50.768 18.61 50.791 18.54 50.809 18.467L53.457 10.35C53.491 10.27 53.518 10.186 53.538 10.101L55.171 5.09399L61.967 3.37399C62.843 3.15199 63.374 2.26199 63.153 1.38499C62.931 0.507987 62.039 -0.0210139 61.164 0.198986L53.493 2.13999C52.948 2.27799 52.512 2.68499 52.338 3.21999L50.695 8.25599L19.045 13.134C19.031 13.136 19.017 13.138 19.003 13.141L11.041 14.368C11.023 14.37 11.005 14.373 10.988 14.376L1.456 15.845C0.568997 15.982 -0.0420035 16.807 0.0849965 17.695L1.785 29.593C1.788 29.615 1.791 29.636 1.794 29.658L2.687 35.91C2.793 36.648 3.383 37.222 4.124 37.305L41.897 41.571C41.958 41.578 42.02 41.581 42.081 41.581C43.331 41.581 44.347 42.529 44.347 43.694C44.347 44.86 43.33 45.808 42.081 45.808H5.713C4.809 45.808 4.076 46.541 4.076 47.445C4.076 48.349 4.809 49.082 5.713 49.082H9.862C7.954 49.924 6.609 51.925 6.609 54.252C6.609 57.338 8.972 59.848 11.878 59.848C14.784 59.848 17.147 57.338 17.147 54.252C17.147 51.925 15.802 49.924 13.894 49.082H35.474C33.566 49.924 32.221 51.925 32.221 54.252C32.221 57.338 34.584 59.848 37.49 59.848C40.395 59.848 42.759 57.338 42.759 54.252C42.759 51.925 41.414 49.924 39.506 49.082H42.081C45.136 49.082 47.622 46.665 47.622 43.694C47.622 41.456 46.208 39.53 44.203 38.719ZM3.554 18.836L9.656 17.896L9.718 22.083L4.133 22.884L3.554 18.836ZM4.596 26.126L9.766 25.384L9.801 27.755H4.829L4.596 26.126ZM5.749 34.194L5.297 31.029H9.849L9.903 34.663L5.749 34.194ZM17.339 35.503L13.183 35.034L13.124 31.03H17.403L17.339 35.503ZM17.45 27.755H13.076L13.034 24.915L17.501 24.274L17.45 27.755ZM17.548 20.959L12.985 21.614L12.923 17.392L17.61 16.669L17.548 20.959ZM41.844 12.934L49.556 11.745L47.975 16.592L40.655 17.643L41.844 12.934ZM31.31 14.558L38.33 13.476L37.15 18.146L30.516 19.098L31.31 14.558ZM24.191 36.277L20.609 35.873L20.679 31.03H25.108L24.191 36.277ZM25.68 27.755H20.726L20.783 23.803L26.515 22.981L25.68 27.755ZM20.83 20.488L20.892 16.164L27.894 15.085L27.107 19.588L20.83 20.488ZM32.338 37.198L27.45 36.646L28.431 31.03H33.895L32.338 37.198ZM29.004 27.755L29.924 22.491L36.283 21.578L34.723 27.755H29.004ZM40.938 38.169L35.622 37.569L37.274 31.03H43.267L40.938 38.169ZM38.101 27.755L39.788 21.075L46.844 20.062L44.335 27.755H38.101ZM11.878 56.576C10.778 56.576 9.884 55.535 9.884 54.255C9.884 52.975 10.779 51.934 11.878 51.934C12.977 51.934 13.872 52.975 13.872 54.255C13.872 55.534 12.977 56.576 11.878 56.576ZM37.489 56.576C36.389 56.576 35.495 55.535 35.495 54.255C35.495 52.975 36.39 51.934 37.489 51.934C38.589 51.934 39.483 52.975 39.483 54.255C39.484 55.534 38.589 56.576 37.489 56.576ZM81.933 47.537C81.933 48.441 81.2 49.174 80.296 49.174H75.893C74.989 49.174 74.256 48.441 74.256 47.537C74.256 46.633 74.989 45.9 75.893 45.9H80.296C81.2 45.899 81.933 46.632 81.933 47.537ZM55.588 37.56C55.588 36.656 56.321 35.923 57.225 35.923H78.675C79.579 35.923 80.312 36.656 80.312 37.56C80.312 38.464 79.579 39.197 78.675 39.197H57.225C56.32 39.197 55.588 38.464 55.588 37.56ZM80.312 27.583C80.312 28.487 79.579 29.22 78.675 29.22H76.383C75.479 29.22 74.746 28.487 74.746 27.583C74.746 26.679 75.479 25.946 76.383 25.946H78.675C79.579 25.946 80.312 26.679 80.312 27.583ZM63.195 17.607C63.195 16.703 63.928 15.97 64.832 15.97H78.674C79.578 15.97 80.311 16.703 80.311 17.607C80.311 18.511 79.578 19.244 78.674 19.244H64.832C63.928 19.244 63.195 18.511 63.195 17.607ZM72.455 47.537C72.455 48.441 71.722 49.174 70.818 49.174H50.989C50.085 49.174 49.352 48.441 49.352 47.537C49.352 46.633 50.085 45.9 50.989 45.9H70.818C71.723 45.899 72.455 46.632 72.455 47.537ZM50.023 39.197C49.119 39.197 48.386 38.464 48.386 37.56C48.386 36.656 49.119 35.923 50.023 35.923H51.894C52.798 35.923 53.531 36.656 53.531 37.56C53.531 38.464 52.798 39.197 51.894 39.197H50.023ZM53.328 25.946H70.725C71.629 25.946 72.362 26.679 72.362 27.583C72.362 28.487 71.629 29.22 70.725 29.22H53.328C52.424 29.22 51.691 28.487 51.691 27.583C51.691 26.679 52.423 25.946 53.328 25.946ZM55.198 19.244C54.294 19.244 53.561 18.511 53.561 17.607C53.561 16.703 54.294 15.97 55.198 15.97H60.56C61.464 15.97 62.197 16.703 62.197 17.607C62.197 18.511 61.464 19.244 60.56 19.244H55.198Z" fill="black"/>
</svg>
